<svg width="71" height="71" viewBox="0 0 71 71" fill="none" xmlns="http://www.w3.org/2000/svg">
<rect x="0.25" y="0.25" width="70.5" height="70.5" rx="9.75" fill="#5956E8" stroke="#5956E8" stroke-width="0.5"/>
<path d="M46.2915 20.0834C45.8826 20.0834 45.4905 20.2458 45.2014 20.5349C44.9123 20.824 44.7498 21.2162 44.7498 21.625V23.1667H37.0415C36.6326 23.1667 36.2405 23.3291 35.9514 23.6183C35.6623 23.9074 35.4998 24.2995 35.4998 24.7084V46.2917C35.4998 46.7006 35.6623 47.0927 35.9514 47.3818C36.2405 47.6709 36.6326 47.8334 37.0415 47.8334H44.7498V49.375C44.7498 49.7839 44.9123 50.176 45.2014 50.4652C45.4905 50.7543 45.8826 50.9167 46.2915 50.9167C46.7004 50.9167 47.0925 50.7543 47.3816 50.4652C47.6707 50.176 47.8332 49.7839 47.8332 49.375V21.625C47.8332 21.2162 47.6707 20.824 47.3816 20.5349C47.0925 20.2458 46.7004 20.0834 46.2915 20.0834ZM44.7498 44.75H38.5832V26.25H44.7498V44.75ZM30.8748 20.0834C30.466 20.0834 30.0738 20.2458 29.7847 20.5349C29.4956 20.824 29.3332 21.2162 29.3332 21.625V24.7084H24.7082C24.2993 24.7084 23.9072 24.8708 23.618 25.1599C23.3289 25.449 23.1665 25.8412 23.1665 26.25V44.75C23.1665 45.1589 23.3289 45.551 23.618 45.8402C23.9072 46.1293 24.2993 46.2917 24.7082 46.2917H29.3332V49.375C29.3332 49.7839 29.4956 50.176 29.7847 50.4652C30.0738 50.7543 30.466 50.9167 30.8748 50.9167C31.2837 50.9167 31.6758 50.7543 31.965 50.4652C32.2541 50.176 32.4165 49.7839 32.4165 49.375V21.625C32.4165 21.2162 32.2541 20.824 31.965 20.5349C31.6758 20.2458 31.2837 20.0834 30.8748 20.0834ZM29.3332 43.2084H26.2498V27.7917H29.3332V43.2084Z" fill="white"/>
</svg>
