<svg width="71" height="71" viewBox="0 0 71 71" fill="none" xmlns="http://www.w3.org/2000/svg">
<rect x="0.25" y="0.25" width="70.5" height="70.5" rx="9.75" fill="#5956E8" stroke="#5956E8" stroke-width="0.5"/>
<path d="M46.2917 20.0834C45.8829 20.0834 45.4907 20.2458 45.2016 20.5349C44.9125 20.824 44.7501 21.2162 44.7501 21.625V23.1667H37.0417C36.6329 23.1667 36.2407 23.3291 35.9516 23.6183C35.6625 23.9074 35.5001 24.2995 35.5001 24.7084V46.2917C35.5001 46.7006 35.6625 47.0927 35.9516 47.3818C36.2407 47.671 36.6329 47.8334 37.0417 47.8334H44.7501V49.375C44.7501 49.7839 44.9125 50.176 45.2016 50.4652C45.4907 50.7543 45.8829 50.9167 46.2917 50.9167C46.7006 50.9167 47.0928 50.7543 47.3819 50.4652C47.671 50.176 47.8334 49.7839 47.8334 49.375V21.625C47.8334 21.2162 47.671 20.824 47.3819 20.5349C47.0928 20.2458 46.7006 20.0834 46.2917 20.0834V20.0834ZM44.7501 44.75H38.5834V26.25H44.7501V44.75ZM30.8751 20.0834C30.4662 20.0834 30.0741 20.2458 29.785 20.5349C29.4958 20.824 29.3334 21.2162 29.3334 21.625V24.7084H24.7084C24.2995 24.7084 23.9074 24.8708 23.6183 25.1599C23.3292 25.449 23.1667 25.8412 23.1667 26.25V44.75C23.1667 45.1589 23.3292 45.551 23.6183 45.8402C23.9074 46.1293 24.2995 46.2917 24.7084 46.2917H29.3334V49.375C29.3334 49.7839 29.4958 50.176 29.785 50.4652C30.0741 50.7543 30.4662 50.9167 30.8751 50.9167C31.284 50.9167 31.6761 50.7543 31.9652 50.4652C32.2543 50.176 32.4167 49.7839 32.4167 49.375V21.625C32.4167 21.2162 32.2543 20.824 31.9652 20.5349C31.6761 20.2458 31.284 20.0834 30.8751 20.0834V20.0834ZM29.3334 43.2084H26.2501V27.7917H29.3334V43.2084Z" fill="white"/>
</svg>
