<svg width="71" height="71" viewBox="0 0 71 71" fill="none" xmlns="http://www.w3.org/2000/svg">
<rect x="0.25" y="0.25" width="70.5" height="70.5" rx="9.75" fill="#5956E8" stroke="#5956E8" stroke-width="0.5"/>
<path d="M41.8758 28.6242V29.1242H42.3758H49.375C49.6512 29.1242 49.9162 29.234 50.1116 29.4293C50.3069 29.6247 50.4166 29.8896 50.4166 30.1659V49.375C50.4166 49.6513 50.3069 49.9163 50.1116 50.1116C49.9162 50.307 49.6512 50.4167 49.375 50.4167H30.1658C29.8895 50.4167 29.6246 50.307 29.4292 50.1116C29.2339 49.9163 29.1241 49.6513 29.1241 49.375V42.3759V41.8759H28.6241C28.3479 41.8759 28.0829 41.7661 27.8876 41.5708C27.6922 41.3754 27.5825 41.1105 27.5825 40.8342C27.5825 40.5579 27.6922 40.293 27.8876 40.0976C28.0829 39.9023 28.3479 39.7925 28.6241 39.7925H29.1241V39.2925V30.1659C29.1241 29.8896 29.2339 29.6247 29.4292 29.4293C29.6246 29.234 29.8895 29.1242 30.1658 29.1242H39.2925H39.7925V28.6242C39.7925 28.3479 39.9022 28.083 40.0976 27.8876C40.2929 27.6923 40.5579 27.5825 40.8341 27.5825C41.1104 27.5825 41.3754 27.6923 41.5707 27.8876C41.7661 28.083 41.8758 28.3479 41.8758 28.6242ZM47.8333 48.3334H48.3333V47.8334V31.7075V31.2075H47.8333H31.7075H31.2075V31.7075V40.8496V47.8334V48.3334H31.7075H47.8333ZM23.1666 22.6667H22.6666V23.1667C22.6666 23.443 22.5569 23.7079 22.3615 23.9033C22.1662 24.0986 21.9012 24.2084 21.625 24.2084C21.3487 24.2084 21.0838 24.0986 20.8884 23.9033C20.6931 23.7079 20.5833 23.443 20.5833 23.1667V21.625C20.5833 21.3488 20.6931 21.0838 20.8884 20.8885C21.0838 20.6931 21.3487 20.5834 21.625 20.5834H23.1666C23.4429 20.5834 23.7079 20.6931 23.9032 20.8885C24.0986 21.0838 24.2083 21.3488 24.2083 21.625C24.2083 21.9013 24.0986 22.1663 23.9032 22.3616C23.7079 22.557 23.4429 22.6667 23.1666 22.6667ZM22.6666 39.2925V39.7925H23.1666C23.4429 39.7925 23.7079 39.9023 23.9032 40.0976C24.0986 40.293 24.2083 40.5579 24.2083 40.8342C24.2083 41.1105 24.0986 41.3754 23.9032 41.5708C23.7079 41.7661 23.4429 41.8759 23.1666 41.8759H21.625C21.3487 41.8759 21.0838 41.7661 20.8884 41.5708C20.6931 41.3754 20.5833 41.1105 20.5833 40.8342V39.2925C20.5833 39.0163 20.6931 38.7513 20.8884 38.556C21.0838 38.3606 21.3487 38.2509 21.625 38.2509C21.9012 38.2509 22.1662 38.3606 22.3615 38.556C22.5569 38.7513 22.6666 39.0163 22.6666 39.2925ZM32.8483 22.6667H29.6108C29.3345 22.6667 29.0696 22.557 28.8742 22.3616C28.6789 22.1663 28.5691 21.9013 28.5691 21.625C28.5691 21.3488 28.6789 21.0838 28.8742 20.8885C29.0696 20.6931 29.3345 20.5834 29.6108 20.5834H32.8483C33.1246 20.5834 33.3895 20.6931 33.5849 20.8885C33.7802 21.0838 33.89 21.3488 33.89 21.625C33.89 21.9013 33.7802 22.1663 33.5849 22.3616C33.3895 22.557 33.1246 22.6667 32.8483 22.6667ZM22.3615 33.5849C22.1662 33.7803 21.9012 33.89 21.625 33.89C21.3487 33.89 21.0838 33.7803 20.8884 33.5849C20.6931 33.3896 20.5833 33.1246 20.5833 32.8484V29.6109C20.5833 29.3346 20.6931 29.0697 20.8884 28.8743C21.0838 28.679 21.3487 28.5692 21.625 28.5692C21.9012 28.5692 22.1662 28.679 22.3615 28.8743C22.5569 29.0697 22.6666 29.3346 22.6666 29.6109V32.8484C22.6666 33.1246 22.5569 33.3896 22.3615 33.5849ZM39.2925 23.1667V22.6667C39.0162 22.6667 38.7513 22.557 38.5559 22.3616C38.3606 22.1663 38.2508 21.9013 38.2508 21.625C38.2508 21.3488 38.3606 21.0838 38.5559 20.8885C38.7513 20.6931 39.0162 20.5834 39.2925 20.5834H40.8341C41.1104 20.5834 41.3754 20.6931 41.5707 20.8885C41.7661 21.0838 41.8758 21.3488 41.8758 21.625V23.1667C41.8758 23.443 41.7661 23.7079 41.5707 23.9033C41.3754 24.0986 41.1104 24.2084 40.8341 24.2084C40.5579 24.2084 40.2929 24.0986 40.0976 23.9033C39.9022 23.7079 39.7925 23.443 39.7925 23.1667H39.2925Z" fill="white" stroke="white"/>
</svg>
