<svg width="32" height="31" viewBox="0 0 32 31" fill="none" xmlns="http://www.w3.org/2000/svg">
<path d="M22.2107 12.4166H19.044V9.33329C19.044 8.92441 18.8772 8.53228 18.5803 8.24316C18.2834 7.95404 17.8806 7.79162 17.4607 7.79162H9.54404C9.12411 7.79162 8.72139 7.95404 8.42445 8.24316C8.12752 8.53228 7.96071 8.92441 7.96071 9.33329V17.0416C7.96071 17.4505 8.12752 17.8426 8.42445 18.1317C8.72139 18.4209 9.12411 18.5833 9.54404 18.5833H12.7107V21.6666C12.7107 22.0755 12.8775 22.4676 13.1745 22.7567C13.4714 23.0459 13.8741 23.2083 14.294 23.2083H22.2107C22.6306 23.2083 23.0334 23.0459 23.3303 22.7567C23.6272 22.4676 23.794 22.0755 23.794 21.6666V13.9583C23.794 13.5494 23.6272 13.1573 23.3303 12.8682C23.0334 12.579 22.6306 12.4166 22.2107 12.4166ZM12.7107 13.9583V15.5H11.1274V10.875H15.8774V12.4166H14.294C13.8741 12.4166 13.4714 12.579 13.1745 12.8682C12.8775 13.1573 12.7107 13.5494 12.7107 13.9583ZM20.6274 20.125H15.8774V15.5H20.6274V20.125ZM30.1274 25.1816V5.81829C30.5556 5.58637 30.9227 5.26085 31.1998 4.86736C31.4769 4.47387 31.6564 4.02313 31.7242 3.55062C31.7921 3.0781 31.7464 2.59671 31.5907 2.14431C31.4351 1.69191 31.1737 1.28086 30.8272 0.943493C30.4808 0.606127 30.0586 0.351655 29.594 0.2001C29.1294 0.0485458 28.6349 0.00404459 28.1497 0.0700984C27.6644 0.136152 27.2015 0.310959 26.7973 0.580762C26.3932 0.850566 26.0589 1.20801 25.8207 1.62495H5.93404C5.69585 1.20801 5.36154 0.850566 4.95741 0.580762C4.55328 0.310959 4.09036 0.136152 3.60508 0.0700984C3.1198 0.00404459 2.62539 0.0485458 2.16077 0.2001C1.69614 0.351655 1.27398 0.606127 0.927495 0.943493C0.581011 1.28086 0.319662 1.69191 0.164011 2.14431C0.00836058 2.59671 -0.0373434 3.0781 0.0304956 3.55062C0.0983346 4.02313 0.277866 4.47387 0.554961 4.86736C0.832057 5.26085 1.19916 5.58637 1.62737 5.81829V25.1816C1.19916 25.4135 0.832057 25.7391 0.554961 26.1325C0.277866 26.526 0.0983346 26.9768 0.0304956 27.4493C-0.0373434 27.9218 0.00836058 28.4032 0.164011 28.8556C0.319662 29.308 0.581011 29.719 0.927495 30.0564C1.27398 30.3938 1.69614 30.6483 2.16077 30.7998C2.62539 30.9514 3.1198 30.9959 3.60508 30.9298C4.09036 30.8638 4.55328 30.6889 4.95741 30.4191C5.36154 30.1493 5.69585 29.7919 5.93404 29.375H25.8207C26.0589 29.7919 26.3932 30.1493 26.7973 30.4191C27.2015 30.6889 27.6644 30.8638 28.1497 30.9298C28.6349 30.9959 29.1294 30.9514 29.594 30.7998C30.0586 30.6483 30.4808 30.3938 30.8272 30.0564C31.1737 29.719 31.4351 29.308 31.5907 28.8556C31.7464 28.4032 31.7921 27.9218 31.7242 27.4493C31.6564 26.9768 31.4769 26.526 31.1998 26.1325C30.9227 25.7391 30.5556 25.4135 30.1274 25.1816ZM26.9607 25.1816C26.4845 25.4444 26.0906 25.828 25.8207 26.2916H5.93404C5.6642 25.828 5.2702 25.4444 4.79404 25.1816V5.81829C5.2702 5.55554 5.6642 5.17191 5.93404 4.70829H25.8207C26.0906 5.17191 26.4845 5.55554 26.9607 5.81829V25.1816Z" fill="white"/>
</svg>
