<svg width="31" height="31" viewBox="0 0 31 31" fill="none" xmlns="http://www.w3.org/2000/svg">
<path d="M29.3345 25.1817V15.0683C29.7515 14.8364 30.1089 14.5109 30.3787 14.1174C30.6485 13.7239 30.8234 13.2732 30.8894 12.8007C30.9555 12.3282 30.911 11.8468 30.7594 11.3944C30.6078 10.942 30.3534 10.5309 30.016 10.1936C29.6786 9.85619 29.2676 9.60172 28.8152 9.45016C28.3628 9.29861 27.8814 9.25411 27.4089 9.32016C26.9364 9.38621 26.4856 9.56102 26.0921 9.83082C25.6986 10.1006 25.3731 10.4581 25.1412 10.875H20.0845V5.81835C20.5015 5.58643 20.8589 5.26091 21.1287 4.86742C21.3985 4.47393 21.5734 4.02319 21.6394 3.55068C21.7055 3.07816 21.661 2.59677 21.5094 2.14437C21.3578 1.69197 21.1034 1.28092 20.766 0.943554C20.4286 0.606188 20.0176 0.351716 19.5652 0.200161C19.1128 0.0486069 18.6314 0.00410563 18.1589 0.0701594C17.6864 0.136213 17.2356 0.31102 16.8421 0.580823C16.4486 0.850627 16.1231 1.20807 15.8912 1.62501H5.77788C5.54596 1.20807 5.22045 0.850627 4.82695 0.580823C4.43346 0.31102 3.98272 0.136213 3.51021 0.0701594C3.0377 0.00410563 2.5563 0.0486069 2.10391 0.200161C1.65151 0.351716 1.24045 0.606188 0.903088 0.943554C0.565722 1.28092 0.311249 1.69197 0.159695 2.14437C0.00814057 2.59677 -0.0363607 3.07816 0.0296931 3.55068C0.0957469 4.02319 0.270553 4.47393 0.540357 4.86742C0.810161 5.26091 1.1676 5.58643 1.58455 5.81835V15.9317C1.1676 16.1636 0.810161 16.4891 0.540357 16.8826C0.270553 17.2761 0.0957469 17.7268 0.0296931 18.1994C-0.0363607 18.6719 0.00814057 19.1533 0.159695 19.6057C0.311249 20.0581 0.565722 20.4691 0.903088 20.8065C1.24045 21.1438 1.65151 21.3983 2.10391 21.5499C2.5563 21.7014 3.0377 21.7459 3.51021 21.6799C3.98272 21.6138 4.43346 21.439 4.82695 21.1692C5.22045 20.8994 5.54596 20.542 5.77788 20.125H10.8345V25.1817C10.4176 25.4136 10.0602 25.7391 9.79036 26.1326C9.52055 26.5261 9.34575 26.9768 9.27969 27.4494C9.21364 27.9219 9.25814 28.4033 9.4097 28.8557C9.56125 29.3081 9.81572 29.7191 10.1531 30.0565C10.4905 30.3938 10.9015 30.6483 11.3539 30.7999C11.8063 30.9514 12.2877 30.9959 12.7602 30.9299C13.2327 30.8638 13.6835 30.689 14.077 30.4192C14.4704 30.1494 14.796 29.792 15.0279 29.375H25.1412C25.3731 29.792 25.6986 30.1494 26.0921 30.4192C26.4856 30.689 26.9364 30.8638 27.4089 30.9299C27.8814 30.9959 28.3628 30.9514 28.8152 30.7999C29.2676 30.6483 29.6786 30.3938 30.016 30.0565C30.3534 29.7191 30.6078 29.3081 30.7594 28.8557C30.911 28.4033 30.9555 27.9219 30.8894 27.4494C30.8234 26.9768 30.6485 26.5261 30.3787 26.1326C30.1089 25.7391 29.7515 25.4136 29.3345 25.1817ZM9.29288 12.4167C9.29613 12.9548 9.44014 13.4826 9.71059 13.9478C9.98105 14.413 10.3685 14.7993 10.8345 15.0683V17.0417H5.77788C5.51514 16.5781 5.13151 16.1944 4.66788 15.9317V5.81835C5.13151 5.55561 5.51514 5.17197 5.77788 4.70835H15.8912C16.154 5.17197 16.5376 5.55561 17.0012 5.81835V10.875H15.0279C14.6845 10.2963 14.1613 9.84571 13.538 9.59212C12.9147 9.33854 12.2255 9.29583 11.5756 9.47053C10.9258 9.64522 10.3509 10.0277 9.93873 10.5597C9.52657 11.0916 9.29975 11.7438 9.29288 12.4167V12.4167ZM17.0012 13.9583V15.9317C16.5376 16.1944 16.154 16.5781 15.8912 17.0417H13.9179V15.0683C14.3815 14.8056 14.7651 14.422 15.0279 13.9583H17.0012ZM26.2512 25.1817C25.7876 25.4444 25.404 25.8281 25.1412 26.2917H15.0279C14.7651 25.8281 14.3815 25.4444 13.9179 25.1817V20.125H15.8912C16.1231 20.542 16.4486 20.8994 16.8421 21.1692C17.2356 21.439 17.6864 21.6138 18.1589 21.6799C18.6314 21.7459 19.1128 21.7014 19.5652 21.5499C20.0176 21.3983 20.4286 21.1438 20.766 20.8065C21.1034 20.4691 21.3578 20.0581 21.5094 19.6057C21.661 19.1533 21.7055 18.6719 21.6394 18.1994C21.5734 17.7268 21.3985 17.2761 21.1287 16.8826C20.8589 16.4891 20.5015 16.1636 20.0845 15.9317V13.9583H25.1412C25.404 14.422 25.7876 14.8056 26.2512 15.0683V25.1817Z" fill="white"/>
</svg>
