<svg width="31" height="19" viewBox="0 0 31 19" fill="none" xmlns="http://www.w3.org/2000/svg">
<path d="M6.62006 5.71958C6.76338 5.86408 6.93389 5.97877 7.12175 6.05704C7.30962 6.13531 7.51112 6.17561 7.71464 6.17561C7.91816 6.17561 8.11966 6.13531 8.30753 6.05704C8.4954 5.97877 8.66591 5.86408 8.80923 5.71958C8.95372 5.57627 9.06841 5.40576 9.14668 5.21789C9.22495 5.03002 9.26525 4.82852 9.26525 4.625C9.26525 4.42148 9.22495 4.21998 9.14668 4.03211C9.06841 3.84424 8.95372 3.67373 8.80923 3.53042L5.72589 0.447083C5.57927 0.306729 5.40638 0.196708 5.21714 0.123333C4.84181 -0.0308612 4.42081 -0.0308612 4.04547 0.123333C3.85623 0.196708 3.68334 0.306729 3.53672 0.447083L0.453391 3.53042C0.16309 3.82072 0 4.21445 0 4.625C0 5.03555 0.16309 5.42928 0.453391 5.71958C0.743693 6.00988 1.13743 6.17297 1.54797 6.17297C1.95852 6.17297 2.35226 6.00988 2.64256 5.71958L3.08964 5.25708V13.2429L2.64256 12.7804C2.35226 12.4901 1.95852 12.327 1.54797 12.327C1.13743 12.327 0.743693 12.4901 0.453391 12.7804C0.16309 13.0707 0 13.4645 0 13.875C0 14.2855 0.16309 14.6793 0.453391 14.9696L3.53672 18.0529C3.68334 18.1933 3.85623 18.3033 4.04547 18.3767C4.23001 18.4582 4.42955 18.5004 4.63131 18.5004C4.83307 18.5004 5.0326 18.4582 5.21714 18.3767C5.40638 18.3033 5.57927 18.1933 5.72589 18.0529L8.80923 14.9696C8.95297 14.8258 9.06699 14.6552 9.14478 14.4674C9.22258 14.2796 9.26262 14.0783 9.26262 13.875C9.26262 13.6717 9.22258 13.4704 9.14478 13.2826C9.06699 13.0948 8.95297 12.9242 8.80923 12.7804C8.66548 12.6367 8.49483 12.5227 8.30703 12.4449C8.11922 12.3671 7.91792 12.327 7.71464 12.327C7.51136 12.327 7.31007 12.3671 7.12226 12.4449C6.93445 12.5227 6.7638 12.6367 6.62006 12.7804L6.17298 13.2429V5.25708L6.62006 5.71958ZM13.8813 3.08333H29.298C29.7069 3.08333 30.099 2.92091 30.3881 2.63179C30.6772 2.34267 30.8396 1.95054 30.8396 1.54167C30.8396 1.13279 30.6772 0.740663 30.3881 0.451544C30.099 0.162425 29.7069 0 29.298 0H13.8813C13.4724 0 13.0803 0.162425 12.7912 0.451544C12.5021 0.740663 12.3396 1.13279 12.3396 1.54167C12.3396 1.95054 12.5021 2.34267 12.7912 2.63179C13.0803 2.92091 13.4724 3.08333 13.8813 3.08333V3.08333ZM29.298 7.70833H13.8813C13.4724 7.70833 13.0803 7.87076 12.7912 8.15988C12.5021 8.449 12.3396 8.84112 12.3396 9.25C12.3396 9.65888 12.5021 10.051 12.7912 10.3401C13.0803 10.6292 13.4724 10.7917 13.8813 10.7917H29.298C29.7069 10.7917 30.099 10.6292 30.3881 10.3401C30.6772 10.051 30.8396 9.65888 30.8396 9.25C30.8396 8.84112 30.6772 8.449 30.3881 8.15988C30.099 7.87076 29.7069 7.70833 29.298 7.70833ZM29.298 15.4167H13.8813C13.4724 15.4167 13.0803 15.5791 12.7912 15.8682C12.5021 16.1573 12.3396 16.5495 12.3396 16.9583C12.3396 17.3672 12.5021 17.7593 12.7912 18.0485C13.0803 18.3376 13.4724 18.5 13.8813 18.5H29.298C29.7069 18.5 30.099 18.3376 30.3881 18.0485C30.6772 17.7593 30.8396 17.3672 30.8396 16.9583C30.8396 16.5495 30.6772 16.1573 30.3881 15.8682C30.099 15.5791 29.7069 15.4167 29.298 15.4167Z" fill="#5956E8"/>
</svg>
