<svg width="31" height="31" viewBox="0 0 31 31" fill="none" xmlns="http://www.w3.org/2000/svg">
<path d="M29.3751 25.1817V15.0683C29.792 14.8364 30.1495 14.5109 30.4193 14.1174C30.6891 13.7239 30.8639 13.2732 30.9299 12.8007C30.996 12.3282 30.9515 11.8468 30.7999 11.3944C30.6484 10.942 30.3939 10.5309 30.0565 10.1936C29.7192 9.85619 29.3081 9.60172 28.8557 9.45016C28.4033 9.29861 27.9219 9.25411 27.4494 9.32016C26.9769 9.38621 26.5262 9.56102 26.1327 9.83082C25.7392 10.1006 25.4137 10.4581 25.1817 10.875H20.1251V5.81835C20.542 5.58643 20.8995 5.26091 21.1693 4.86742C21.4391 4.47393 21.6139 4.02319 21.6799 3.55068C21.746 3.07816 21.7015 2.59677 21.5499 2.14437C21.3984 1.69197 21.1439 1.28092 20.8065 0.943554C20.4692 0.606188 20.0581 0.351716 19.6057 0.200161C19.1533 0.0486069 18.6719 0.00410563 18.1994 0.0701594C17.7269 0.136213 17.2762 0.31102 16.8827 0.580823C16.4892 0.850627 16.1637 1.20807 15.9317 1.62501H5.81841C5.58649 1.20807 5.26098 0.850627 4.86748 0.580823C4.47399 0.31102 4.02325 0.136213 3.55074 0.0701594C3.07822 0.00410563 2.59683 0.0486069 2.14443 0.200161C1.69204 0.351716 1.28098 0.606188 0.943615 0.943554C0.606249 1.28092 0.351777 1.69197 0.200222 2.14437C0.0486679 2.59677 0.00416666 3.07816 0.0702205 3.55068C0.136274 4.02319 0.311081 4.47393 0.580884 4.86742C0.850688 5.26091 1.20813 5.58643 1.62507 5.81835V15.9317C1.20813 16.1636 0.850688 16.4891 0.580884 16.8826C0.311081 17.2761 0.136274 17.7268 0.0702205 18.1994C0.00416666 18.6719 0.0486679 19.1533 0.200222 19.6057C0.351777 20.0581 0.606249 20.4691 0.943615 20.8065C1.28098 21.1438 1.69204 21.3983 2.14443 21.5499C2.59683 21.7014 3.07822 21.7459 3.55074 21.6799C4.02325 21.6138 4.47399 21.439 4.86748 21.1692C5.26098 20.8994 5.58649 20.542 5.81841 20.125H10.8751V25.1817C10.4581 25.4136 10.1007 25.7391 9.83088 26.1326C9.56108 26.5261 9.38627 26.9768 9.32022 27.4494C9.25417 27.9219 9.29867 28.4033 9.45022 28.8557C9.60178 29.3081 9.85625 29.7191 10.1936 30.0565C10.531 30.3938 10.942 30.6483 11.3944 30.7999C11.8468 30.9514 12.3282 30.9959 12.8007 30.9299C13.2733 30.8638 13.724 30.689 14.1175 30.4192C14.511 30.1494 14.8365 29.792 15.0684 29.375H25.1817C25.4137 29.792 25.7392 30.1494 26.1327 30.4192C26.5262 30.689 26.9769 30.8638 27.4494 30.9299C27.9219 30.9959 28.4033 30.9514 28.8557 30.7999C29.3081 30.6483 29.7192 30.3938 30.0565 30.0565C30.3939 29.7191 30.6484 29.3081 30.7999 28.8557C30.9515 28.4033 30.996 27.9219 30.9299 27.4494C30.8639 26.9768 30.6891 26.5261 30.4193 26.1326C30.1495 25.7391 29.792 25.4136 29.3751 25.1817ZM9.33341 12.4167C9.33666 12.9548 9.48066 13.4826 9.75112 13.9478C10.0216 14.413 10.4091 14.7993 10.8751 15.0683V17.0417H5.81841C5.55567 16.5781 5.17203 16.1944 4.70841 15.9317V5.81835C5.17203 5.55561 5.55567 5.17197 5.81841 4.70835H15.9317C16.1945 5.17197 16.5781 5.55561 17.0417 5.81835V10.875H15.0684C14.7251 10.2963 14.2018 9.84571 13.5785 9.59212C12.9552 9.33854 12.266 9.29583 11.6161 9.47053C10.9663 9.64522 10.3914 10.0277 9.97925 10.5597C9.56709 11.0916 9.34028 11.7438 9.33341 12.4167V12.4167ZM17.0417 13.9583V15.9317C16.5781 16.1944 16.1945 16.5781 15.9317 17.0417H13.9584V15.0683C14.422 14.8056 14.8057 14.422 15.0684 13.9583H17.0417ZM26.2917 25.1817C25.8281 25.4444 25.4445 25.8281 25.1817 26.2917H15.0684C14.8057 25.8281 14.422 25.4444 13.9584 25.1817V20.125H15.9317C16.1637 20.542 16.4892 20.8994 16.8827 21.1692C17.2762 21.439 17.7269 21.6138 18.1994 21.6799C18.6719 21.7459 19.1533 21.7014 19.6057 21.5499C20.0581 21.3983 20.4692 21.1438 20.8065 20.8065C21.1439 20.4691 21.3984 20.0581 21.5499 19.6057C21.7015 19.1533 21.746 18.6719 21.6799 18.1994C21.6139 17.7268 21.4391 17.2761 21.1693 16.8826C20.8995 16.4891 20.542 16.1636 20.1251 15.9317V13.9583H25.1817C25.4445 14.422 25.8281 14.8056 26.2917 15.0683V25.1817Z" fill="#5956E8"/>
</svg>
