<svg width="32" height="31" viewBox="0 0 32 31" fill="none" xmlns="http://www.w3.org/2000/svg">
<path d="M22.3333 12.4166H19.1666V9.33329C19.1666 8.92441 18.9998 8.53228 18.7029 8.24316C18.4059 7.95404 18.0032 7.79162 17.5833 7.79162H9.6666C9.24667 7.79162 8.84394 7.95404 8.54701 8.24316C8.25008 8.53228 8.08326 8.92441 8.08326 9.33329V17.0416C8.08326 17.4505 8.25008 17.8426 8.54701 18.1317C8.84394 18.4209 9.24667 18.5833 9.6666 18.5833H12.8333V21.6666C12.8333 22.0755 13.0001 22.4676 13.297 22.7567C13.5939 23.0459 13.9967 23.2083 14.4166 23.2083H22.3333C22.7532 23.2083 23.1559 23.0459 23.4529 22.7567C23.7498 22.4676 23.9166 22.0755 23.9166 21.6666V13.9583C23.9166 13.5494 23.7498 13.1573 23.4529 12.8682C23.1559 12.579 22.7532 12.4166 22.3333 12.4166ZM12.8333 13.9583V15.5H11.2499V10.875H15.9999V12.4166H14.4166C13.9967 12.4166 13.5939 12.579 13.297 12.8682C13.0001 13.1573 12.8333 13.5494 12.8333 13.9583ZM20.7499 20.125H15.9999V15.5H20.7499V20.125ZM30.2499 25.1816V5.81829C30.6781 5.58637 31.0452 5.26085 31.3223 4.86736C31.5994 4.47387 31.779 4.02313 31.8468 3.55062C31.9146 3.0781 31.8689 2.59671 31.7133 2.14431C31.5576 1.69191 31.2963 1.28086 30.9498 0.943493C30.6033 0.606127 30.1812 0.351655 29.7165 0.2001C29.2519 0.0485458 28.7575 0.00404459 28.2722 0.0700984C27.7869 0.136152 27.324 0.310959 26.9199 0.580762C26.5158 0.850566 26.1815 1.20801 25.9433 1.62495H6.0566C5.81841 1.20801 5.4841 0.850566 5.07997 0.580762C4.67584 0.310959 4.21292 0.136152 3.72764 0.0700984C3.24236 0.00404459 2.74795 0.0485458 2.28333 0.2001C1.8187 0.351655 1.39654 0.606127 1.05005 0.943493C0.70357 1.28086 0.44222 1.69191 0.28657 2.14431C0.130919 2.59671 0.0852152 3.0781 0.153054 3.55062C0.220893 4.02313 0.400424 4.47387 0.67752 4.86736C0.954615 5.26085 1.32172 5.58637 1.74993 5.81829V25.1816C1.32172 25.4135 0.954615 25.7391 0.67752 26.1325C0.400424 26.526 0.220893 26.9768 0.153054 27.4493C0.0852152 27.9218 0.130919 28.4032 0.28657 28.8556C0.44222 29.308 0.70357 29.719 1.05005 30.0564C1.39654 30.3938 1.8187 30.6483 2.28333 30.7998C2.74795 30.9514 3.24236 30.9959 3.72764 30.9298C4.21292 30.8638 4.67584 30.6889 5.07997 30.4191C5.4841 30.1493 5.81841 29.7919 6.0566 29.375H25.9433C26.1815 29.7919 26.5158 30.1493 26.9199 30.4191C27.324 30.6889 27.7869 30.8638 28.2722 30.9298C28.7575 30.9959 29.2519 30.9514 29.7165 30.7998C30.1812 30.6483 30.6033 30.3938 30.9498 30.0564C31.2963 29.719 31.5576 29.308 31.7133 28.8556C31.8689 28.4032 31.9146 27.9218 31.8468 27.4493C31.779 26.9768 31.5994 26.526 31.3223 26.1325C31.0452 25.7391 30.6781 25.4135 30.2499 25.1816ZM27.0833 25.1816C26.6071 25.4444 26.2131 25.828 25.9433 26.2916H6.0566C5.78675 25.828 5.39275 25.4444 4.9166 25.1816V5.81829C5.39275 5.55554 5.78675 5.17191 6.0566 4.70829H25.9433C26.2131 5.17191 26.6071 5.55554 27.0833 5.81829V25.1816Z" fill="#5956E8"/>
</svg>
