<svg width="42" height="42" viewBox="0 0 42 42" fill="none" xmlns="http://www.w3.org/2000/svg">
<g style="mix-blend-mode:luminosity">
<circle cx="21" cy="21" r="21" fill="white"/>
</g>
<path d="M32.9063 13.3716C32.1412 13.7178 31.3035 13.9244 30.477 14.064C30.8679 13.997 31.4432 13.2934 31.6721 13.003C32.024 12.5674 32.3144 12.0703 32.4763 11.5342C32.4986 11.4895 32.5154 11.4393 32.4707 11.4058C32.4205 11.3834 32.3814 11.3946 32.3423 11.4169C31.4264 11.9084 30.477 12.2658 29.4606 12.5171C29.3768 12.5394 29.3154 12.5171 29.2596 12.4668C29.1758 12.3719 29.0976 12.2826 29.0083 12.21C28.5838 11.847 28.1259 11.5621 27.6121 11.3555C26.9364 11.0819 26.1992 10.9646 25.4732 11.0093C24.7639 11.0539 24.0715 11.255 23.446 11.5845C22.8149 11.914 22.2565 12.3719 21.8097 12.9192C21.3462 13.4888 21.0055 14.1646 20.8324 14.8794C20.6648 15.5663 20.676 16.2476 20.7821 16.9457C20.7989 17.063 20.7877 17.0742 20.6816 17.063C16.7277 16.4766 13.4495 15.0581 10.7912 12.0312C10.674 11.8972 10.6125 11.8972 10.5176 12.0424C9.35598 13.7848 9.92003 16.5883 11.372 17.9677C11.5675 18.152 11.763 18.3363 11.9808 18.5038C11.9026 18.5206 10.9364 18.4145 10.0708 17.9677C9.95354 17.8951 9.89769 17.9342 9.88652 18.0682C9.87535 18.2581 9.89211 18.4312 9.92003 18.6323C10.1434 20.4026 11.3664 22.0389 13.0474 22.6755C13.2485 22.7593 13.4663 22.8319 13.6841 22.871C13.3043 22.9548 12.9078 23.0162 11.8132 22.9268C11.6792 22.8989 11.6233 22.9715 11.6792 23.1C12.5001 25.345 14.2816 26.0151 15.6108 26.3949C15.7895 26.4284 15.9682 26.4284 16.1469 26.4675C16.1357 26.4842 16.1245 26.4842 16.1134 26.501C15.6722 27.1767 14.142 27.6738 13.4272 27.9251C12.1315 28.3774 10.7186 28.5841 9.3504 28.45C9.1326 28.4165 9.08234 28.4221 9.02649 28.45C8.96506 28.4891 9.02091 28.5394 9.08792 28.5952C9.36715 28.7795 9.64638 28.9415 9.93678 29.0978C10.808 29.5614 11.7127 29.9244 12.6621 30.1868C17.5654 31.5383 23.083 30.5443 26.7632 26.8919C29.6505 24.0214 30.6669 20.0619 30.6669 16.0968C30.6669 15.9405 30.8512 15.8567 30.9573 15.7729C31.7112 15.2089 32.3144 14.5332 32.8784 13.7792C33.0068 13.6117 33.0068 13.4609 33.0068 13.3995C33.0068 13.3883 33.0068 13.3771 33.0068 13.3771C33.0068 13.3101 33.0068 13.3269 32.9063 13.3716Z" fill="#33CCFF"/>
</svg>
